# xmcd
#
# Track frame offsets: 
#        150
#        20100
#        43789
#        57269
#
# Disc length: 991 seconds
#
# Revision: 0
# Processed by: cddbd v1.5.2PL0 Copyright (c) Steve Scherf et al.
# Submitted via: ExactAudioCopy v0.99pb4
#
DISCID=3203dd04
DTITLE=Crossfire - Let's Blues
DYEAR=2007
DGENRE=Blues
TTITLE0=The Sky Is Crying
TTITLE1=When I Get Drunk
TTITLE2=Flip Flop Fly
TTITLE3=Cruel
EXTD=
EXTT0=
EXTT1=
EXTT2=
EXTT3=
PLAYORDER=
